<svg width="130" height="42" viewBox="0 0 130 42" fill="none" xmlns="http://www.w3.org/2000/svg">
<g clip-path="url(#clip0_58894_1775)">
<path d="M15 20.7959C15 21.1035 15.1143 21.3672 15.3604 21.5957L22.1982 28.293C22.3916 28.4863 22.6377 28.5918 22.9277 28.5918C23.5078 28.5918 23.9736 28.1348 23.9736 27.5459C23.9736 27.2559 23.8506 27.001 23.6572 26.7988L17.4961 20.7959L23.6572 14.793C23.8506 14.5908 23.9736 14.3271 23.9736 14.0459C23.9736 13.457 23.5078 13 22.9277 13C22.6377 13 22.3916 13.1055 22.1982 13.2988L15.3604 19.9873C15.1143 20.2246 15 20.4883 15 20.7959Z" fill="#1A1B22"/>
</g>
<defs>
<clipPath id="clip0_58894_1775">
<rect width="130" height="42" fill="white"/>
</clipPath>
</defs>
</svg>
